<?xml version="1.0" encoding="utf-8"?>
<!-- Generator: Adobe Illustrator 24.2.0, SVG Export Plug-In . SVG Version: 6.00 Build 0)  -->
<svg version="1.1" id="Layer_1" xmlns="http://www.w3.org/2000/svg" xmlns:xlink="http://www.w3.org/1999/xlink" x="0px" y="0px"
	 viewBox="0 0 474 547" enable-background="new 0 0 474 547" xml:space="preserve">
<path fill="#143980" d="M55.33,12.74c0.42-2.83,3.75-1.44,5.67-1.76c118.94,0.02,237.89,0.05,356.84-0.02
	c14.66,39.26,29.22,78.55,43.85,117.81c0.73,1.31-0.32,2.56-0.83,3.71c-13.44,25.01-24.27,51.43-32.48,78.6
	c-6.87,22.4-10.31,45.62-15.44,68.44c-5.65,26.44-11.84,52.78-19.26,78.79c-6.41,22.19-13.56,44.26-23.26,65.26
	c-6.97,15.57-16.57,29.81-27.24,43.07c-20.88,26.18-48.2,47.19-79.04,60.29c-8.88,3.69-17.88,7.27-27.22,9.6
	c-35.09-9.7-67.79-28.61-93.01-54.97c-18.79-19.48-34.5-42.16-44.6-67.35c-16.65-40.47-26.93-83.19-36.46-125.79
	c-4.71-20.52-8.2-41.31-13.09-61.79c-8.62-33.54-21.36-66.1-38.07-96.44C26.18,91.02,40.82,51.9,55.33,12.74z M60.1,17.97
	C45.7,54.84,31.42,91.75,17.09,128.64c13.89,26.95,26.16,54.89,34.61,84.05c4.8,17.52,8.11,35.4,11.75,53.19
	c9.01,45.46,18.82,90.99,35.01,134.53c10.22,27.83,25.54,54.02,46.21,75.39c24.97,26.19,57.49,45.02,92.37,54.4
	c25.48-6.97,49.68-18.89,70.63-35.02c28.2-21.55,49.7-51.16,63.39-83.77c17.38-42.72,27.68-87.9,36.83-132.97
	c5.66-26.56,9.79-53.55,18.47-79.35c8.26-24.26,18.65-47.77,30.45-70.5c-14.44-36.84-28.58-73.79-43.05-110.61
	C295.87,18.01,177.99,18.02,60.1,17.97z"/>
<path fill="#143980" d="M62.02,20.75c116.61-0.01,233.22,0.03,349.83-0.02c13.81,35.5,27.54,71.04,41.41,106.52
	c-144.21,0-288.42-0.01-432.63,0.01C34.47,91.77,48.21,56.25,62.02,20.75z M400.06,41.11 M114.12,40.54
	c1.35,1.48,2.83,2.88,5.05,2.65c-0.75-1.28-1.51-2.56-2.28-3.83C116.2,39.65,114.81,40.25,114.12,40.54z M105.39,41.41
	c0.91,1.87,0.4,3.06-1.9,2.81c-0.6,3.29,1.92,9.32-2.77,10.18C96.25,53.26,98.58,47.3,98,44c-0.75,0-2.24,0-2.99,0
	c0.04,3.15-0.22,6.32,0.18,9.44c0.72,4.21,6.51,4.9,9.48,2.7c2.69-2.27,1.61-6.14,1.84-9.21c1.67-1.28,2.61-3.07,2.33-5.21
	C107.69,41.62,106.54,41.51,105.39,41.41z M120.49,41.87c0.17,0.67,0.5,2.01,0.67,2.68c-2.56-0.65-5.58-1.58-7.98,0.03
	c-3.7,1.96-4.58,7.55-1.64,10.54c2.74,3.12,8.26,2.95,10.77-0.38c1.95-2.31,1.58-5.55,0.61-8.21
	C124.69,44.39,123.96,40.76,120.49,41.87z M142.75,45.23c-3.46,2.65-3.26,8.74,0.5,11.02c2.97,2.02,6.97,1.05,9.75-0.87
	c-0.01-1.96,0-3.92,0-5.88c-2,0-4.01,0-6.01,0c0.01,0.67,0.03,2.01,0.04,2.68c0.62,0.04,1.886-0.044,2.516-0.004l0.032,1.452
	c-3.02,3.11-7.998-1.578-5.528-5.108c1.32-2.64,4.65-2,6.74-0.75c0.45-0.6,1.35-1.79,1.8-2.39C149.75,43.35,145.57,43,142.75,45.23z
	 M180.53,43.77c-1.88,4.51-3.87,8.98-5.67,13.52c0.81-0.01,2.43-0.03,3.24-0.04c0.38-0.98,0.76-1.96,1.14-2.94
	c1.75-0.03,3.5-0.05,5.26-0.06c0.35,2.61,2.23,3.49,4.65,3.14c-1.81-4.57-3.82-9.05-5.67-13.6
	C182.49,43.78,181.51,43.77,180.53,43.77z M202.5,44.01c0,4.41,0,8.82,0,13.23c1.08,0.01,2.17,0.01,3.26,0.02
	c-0.01-1.73-0.02-3.46-0.03-5.19c1.67-0.04,3.35-0.07,5.03-0.1c-0.02,1.71-0.04,3.42-0.07,5.13c1.02,0.07,2.03,0.14,3.05,0.21
	c0.02-4.44,0.02-8.88,0-13.32c-1,0-2,0.01-2.99,0.02c0,1.66-0.01,3.33-0.01,4.99c-1.66,0-3.32,0-4.98-0.01
	c-0.01-1.67-0.01-3.33-0.02-5C204.66,43.99,203.58,44,202.5,44.01z M220.52,44.11c-4.76,1.7-5.82,8.72-1.8,11.73
	c3.83,3.35,10.92,0.93,11.4-4.31C231.19,46.3,225.25,42.02,220.52,44.11z M234.63,45.07c-3.66,2.67-3.46,9.04,0.56,11.27
	c2.92,1.8,6.71,1,9.24-1.15c-0.68-0.73-1.36-1.45-2.04-2.17c-1.58,0.95-3.84,2.19-5.51,0.73c-2.13-1.5-2.15-4.99-0.01-6.48
	c1.62-1.56,3.85-0.04,5.46,0.74c0.67-0.82,1.35-1.65,2.03-2.48C241.56,43.56,237.47,42.76,234.63,45.07z M265.5,44
	c-0.01,4.41,0,8.82-0.01,13.24c1,0,2,0.01,3.01,0.01c0-1.75,0-3.5,0-5.25c1.66,0,3.33,0,5,0c-0.01,1.75,0,3.49,0,5.24
	c1.08,0.01,2.16,0.01,3.25,0.02c0.01-4.42,0.01-8.84,0-13.27C275.66,44,274.58,44,273.5,44c0,1.67-0.01,3.33,0,4.99
	c-1.67,0-3.33,0-5,0c0-1.66,0-3.33,0-4.99C267.49,44,266.5,44,265.5,44z M283.46,44.06c-4.83,1.6-6.06,8.83-1.85,11.79
	c3.81,3.33,10.87,0.89,11.33-4.3C294.07,46.36,288.15,42.14,283.46,44.06z M299.01,43.76c-1.92,4.48-3.84,8.97-5.69,13.48
	c1.07-0.01,2.15-0.02,3.24-0.03c0.4-0.99,0.82-1.98,1.23-2.97c1.76,0.01,3.52,0.02,5.28,0.03c0.39,1,0.78,2,1.18,3.01
	c1.11-0.03,2.24-0.07,3.36-0.1c-1.96-4.47-3.82-8.99-5.76-13.47C301.14,43.72,299.72,43.75,299.01,43.76z M332.51,44.22
	c-4.5,1.74-5.58,8.54-1.75,11.49c3.85,3.54,11.17,1.12,11.57-4.29C343.32,46.15,337.19,41.94,332.51,44.22z M346.7,45.17
	c-2.71,2.07-3.2,6.24-1.45,9.08c2.18,3.87,8.67,4.21,11.19,0.56c-1.55-3.61-4.61,0.87-7.1-0.79c-2.48-1.55-2.48-5.57,0.11-7.02
	c1.69-1,3.52,0.17,5.02,0.97c0.51-0.54,1.54-1.6,2.05-2.13C354.01,43.29,349.48,42.82,346.7,45.17z M364.05,43.95
	c-0.08,4.44-0.05,8.87-0.04,13.31c0.8,0,2.4,0.01,3.19,0.01c0.02-1.76,0.05-3.52,0.08-5.28c1.65,0.01,3.31,0.03,4.97,0.04
	c0,1.74-0.01,3.48,0,5.22c0.75,0,2.25,0,3,0c0-4.39-0.01-8.78,0.02-13.17c-1.01-0.04-2.01-0.08-3.01-0.12
	c-0.01,1.68-0.02,3.35-0.02,5.03c-1.67,0-3.33,0.01-4.98,0.01c-0.01-1.66-0.01-3.32-0.01-4.97C366.18,44,365.11,43.98,364.05,43.95z
	 M68.75,44.01c0,0.68,0,2.05,0,2.74c1.33,0,2.66,0,4,0.01c0,3.5,0,7,0.01,10.5c0.75,0,2.24-0.01,2.99-0.01c0-3.5,0-7,0-10.49
	c1.32,0,2.64,0,3.96,0c0.03-0.68,0.09-2.02,0.12-2.7C76.13,43.97,72.44,43.98,68.75,44.01z M81.75,44.01c0,4.41,0,8.83,0,13.24
	c0.73,0,2.21,0,2.94,0.01c0.52-1.34-0.89-4.03,1.14-4.45c2.04,0.46,2.6,2.9,3.81,4.35c1.27,0.04,2.54,0.07,3.81,0.1
	c-1.03-1.59-2.1-3.16-3.17-4.72c3.37-1.54,3.61-7.42-0.29-8.37C87.26,43.83,84.5,44.02,81.75,44.01z M126,44c0,4.42,0,8.84,0,13.25
	c0.82,0,2.44,0,3.25-0.01c0-2.65,0-5.3-0.02-7.95c2.03,2.63,4.06,5.27,6.05,7.93c0.67,0.02,2.02,0.06,2.69,0.08
	c0.05-4.44,0.03-8.87,0.03-13.3c-0.82,0-2.44,0-3.25,0c0,2.46,0,4.93,0.01,7.39c-1.91-2.44-3.79-4.9-5.63-7.4
	C128.35,44,126.78,44,126,44z M161.51,44.01c-0.01,1.52,0.54,10.45,0.01,13.25c3.24-0.13,6.91,0.58,9.69-1.54
	c3.4-2.37,3.39-8.17-0.1-10.46C168.37,43.12,164.69,44.26,161.51,44.01z M191,44c0,4.42-0.01,8.85,0.02,13.27
	c0.74,0,2.23-0.01,2.97-0.02C194,52.83,194,48.41,194,44C193.25,44,191.75,44,191,44z M251.75,44.01c0,4.41,0,8.82,0,13.23
	c0.79,0.01,2.38,0.02,3.17,0.02c0.11-1.93-0.21-4.07,1.19-5.64c1.45,1.83,2.84,3.71,4.2,5.61c1.28,0.02,2.57,0.04,3.85,0.06
	c-1.81-2.6-3.71-5.14-5.63-7.67c1.71-1.93,3.48-3.79,5.3-5.62c-0.99,0-2.97-0.01-3.95-0.01c-1.6,1.76-3.23,3.5-4.88,5.22
	c0-1.74,0-3.47,0-5.21C254.19,44.01,252.56,44.01,251.75,44.01z M314.75,44c0,4.42,0,8.83,0,13.25c0.81,0,2.44,0,3.25,0
	c0-1.75,0-3.5,0-5.25c1.66,0,3.32,0,4.99,0c0,1.76,0.02,3.52,0.03,5.27c0.74,0,2.23-0.01,2.97-0.02C326,52.84,326,48.42,326,44.01
	C325.25,44,323.75,44,323,44c0,1.66,0,3.33,0,5c-1.67,0-3.34,0-5,0c0-1.67-0.01-3.34,0-5C317.19,44,315.56,44,314.75,44z M378.01,44
	c0.04,3.12-0.21,6.26,0.16,9.36c0.83,5.29,9.89,5.35,11.08,0.24c0.47-3.18,0.2-6.4,0.24-9.6c-0.75,0-2.25,0-3,0
	c0.03,3.17,0.526,6.843-0.36,9.52c-0.213,0.643-1.837,1.114-2.51,1.01c-4.072-0.631-2.08-7.09-2.62-10.53
	C380.25,44,378.76,44,378.01,44z M392.24,44.01c0.01,4.42,0,8.83,0.01,13.24c3.39,0,6.79,0,10.18,0.03
	c0.03-0.76,0.07-2.27,0.09-3.03c-2.43,0-4.85,0-7.26,0c-0.01-0.62-0.02-1.87-0.02-2.49c2.08-0.01,4.17-0.01,6.26-0.01
	c0-0.69,0-2.06,0-2.75c-2.08,0-4.15,0-6.22,0c-0.02-0.56-0.05-1.67-0.06-2.23c2.34-0.01,4.68-0.02,7.03-0.03c0-0.68,0-2.05,0-2.74
	C398.91,43.99,395.58,43.99,392.24,44.01z M180.51,58.24c-0.01,0.84-0.01,1.68,0,2.52c0.91-0.01,1.82-0.01,2.74-0.02
	c0-0.83,0-1.65,0-2.48C182.33,58.25,181.42,58.25,180.51,58.24z M222.36,58.76c-1.161,1.101,0.536,2.761,1.89,1.48
	C225.412,59.14,223.706,57.484,222.36,58.76z M334,58.25c0,0.64,0,1.92,0,2.56c1.95,0.16,3.77,0.01,3.12-2.56
	C336.34,58.25,334.78,58.25,334,58.25z M83.44,72.24c0.12,0.47,0.37,1.43,0.5,1.91c101.33,0.25,202.69,0.02,304.03,0.11
	c0.01-0.5,0.03-1.5,0.04-2.01C286.49,72.23,184.96,72.27,83.44,72.24z M56.25,91.02c0,5.25-0.01,10.49,0.01,15.74
	c1.25-0.01,2.49-0.01,3.74-0.01c0-2.09,0-4.17,0-6.25c2,0,4,0,6,0c0,2.07-0.01,4.14-0.01,6.21c1.25,0.02,2.5,0.04,3.75,0.06
	c0.02-5.25,0.01-10.5,0.01-15.75c-1.23-0.03-2.46-0.05-3.69-0.07c-0.04,2.1-0.07,4.2-0.09,6.31c-1.98-0.01-3.96-0.01-5.93,0
	c-0.03-2.11-0.07-4.22-0.13-6.33C58.69,90.96,57.47,90.99,56.25,91.02z M73.12,90.9c-0.07,3.85-0.43,7.74,0.17,11.56
	c1.25,6.28,11.83,6.2,13.35,0.11c0.74-3.82,0.26-7.76,0.29-11.63c-1.23,0.03-2.46,0.05-3.68,0.08c-0.07,3.47,0.19,6.95-0.16,10.41
	c-0.54,3-5.56,3.1-6.11,0.05c-0.48-3.46-0.15-6.97-0.22-10.45C75.54,90.99,74.33,90.95,73.12,90.9z M90.26,91
	c-0.02,5.25-0.03,10.5,0,15.76c3.99-0.01,7.98-0.01,11.96-0.01c0.01-0.81,0.03-2.43,0.04-3.25c-2.84,0-5.67,0-8.51,0
	c0-0.75,0-2.25,0-3c2.5,0,5,0,7.5,0c0-0.81,0-2.43,0-3.24c-2.51,0-5.03-0.02-7.54-0.07c0.02-0.96,0.03-1.92,0.05-2.89
	c2.84-0.04,5.67-0.06,8.51-0.08c-0.01-1.07-0.02-2.15-0.03-3.22C98.25,90.99,94.25,91,90.26,91z M128.74,91.04
	c0.02,5.23,0,10.47,0.01,15.71c0.94,0,2.81,0,3.75,0c0.01-3.12,0-6.24-0.05-9.36c2.49,3.08,4.83,6.28,7.29,9.4
	c0.81-0.02,2.44-0.04,3.26-0.05c-0.02-5.27,0.06-10.53-0.07-15.8c-1.23,0.03-2.45,0.05-3.68,0.08c0.01,2.97,0.01,5.94-0.07,8.91
	c-2.42-2.89-4.67-5.91-6.93-8.92C131.08,91.01,129.91,91.02,128.74,91.04z M170.75,91.01c0,5.25-0.01,10.49,0,15.74c4,0,8,0,12,0
	c0-0.81,0-2.44,0-3.25c-2.84,0-5.67,0-8.51-0.01c0-0.75,0-2.24,0.01-2.98c2.5-0.01,5-0.01,7.5-0.01c0-0.81,0-2.44-0.01-3.25
	c-2.52,0-5.03,0-7.55-0.01c0.07-1.01,0.14-2.03,0.22-3.04c2.78,0.05,5.57,0.06,8.35,0.05c-0.01-1.09-0.02-2.17-0.02-3.25
	C178.74,91,174.74,90.99,170.75,91.01z M185.74,91.04c0.02,5.23,0,10.47,0.01,15.71c0.94,0,2.81,0,3.75,0c0-1.67,0-3.33,0-5
	c0.56,0.01,1.68,0.01,2.24,0.01c1.11,1.66,2.22,3.32,3.32,4.98c1.5,0.01,2.99,0.01,4.49,0.02c-1.24-1.81-2.47-3.63-3.7-5.44
	c3.35-1.67,4.49-6.6,1.46-9.12C193.87,90.05,189.57,91.29,185.74,91.04z M204.47,91.21c-2.88,0.86-3.79,4.61-2.37,7.05
	c2.03,2.38,5.77,1.78,7.86,4.06c-1.74,2.89-5.08,0.58-7.2-0.45c-0.44,0.96-2.55,2.14-1.33,3.24c2.78,2.23,7.01,2.62,10.12,0.89
	c2.96-2.17,2.21-7.56-1.64-8.19c-1.57-1-5.04-0.6-4.76-3.14c1.96-1.25,4.09,0.25,5.97,0.89c0.67-0.93,1.33-1.86,1.99-2.79
	C210.53,91.26,207.45,89.95,204.47,91.21z M216.25,91.01c0,5.25-0.02,10.5,0.01,15.75c1.24-0.01,2.49-0.01,3.74-0.02
	c-0.02-5.26,0.04-10.52-0.05-15.78C218.72,90.98,217.48,90.99,216.25,91.01z M222.52,91c-0.02,1.14-0.05,2.29-0.07,3.44
	c1.6,0.03,3.19,0.06,4.8,0.09c-0.01,4.08-0.01,8.16,0.01,12.25c1.25-0.03,2.5-0.05,3.75-0.07c-0.02-4.07-0.01-8.13-0.01-12.2
	c1.59-0.01,3.19-0.03,4.79-0.04c-0.03-1.16-0.05-2.32-0.06-3.48C231.32,91,226.92,91,222.52,91z M248.17,90.95
	c-1.25,2.02-2.51,4.04-3.8,6.03c-1.16-2-2.34-3.99-3.51-5.99c-1.48,0.01-2.95,0.02-4.42,0.04c1.63,2.69,3.4,5.29,5.06,7.97
	c1.66,2.25,0.83,5.17,1,7.75c0.94,0,2.8,0,3.74,0c0.02-2.04-0.15-4.1,0.17-6.12c1.7-3.33,4.1-6.26,5.78-9.6
	C250.85,91,249.51,90.98,248.17,90.95z M265.46,91.19c-5.2,1.79-7.1,9.17-3.23,13.16c4.31,5.53,14.63,2.39,14.79-4.76
	C277.82,93.52,270.97,88.88,265.46,91.19z M279.74,91.02c0.01,5.25,0,10.49,0.01,15.73c0.94,0,2.81,0,3.75,0c0-2,0-3.99,0-5.99
	c2.5-0.01,5-0.01,7.5-0.01c0-0.81,0-2.43,0-3.24c-2.54,0.01-5.08-0.02-7.61-0.13c0.05-1.04,0.11-2.09,0.18-3.13
	c2.81,0,5.62,0,8.44,0.01c-0.04-1.1-0.07-2.2-0.1-3.31C287.85,91.02,283.79,90.98,279.74,91.02z M303.71,91.27
	c-3.19,0.97-4.01,5.89-1.28,7.82c1.99,1.25,4.42,1.54,6.55,2.52c0.13,3.88-4.98,1.34-6.91,0.33c-0.53,0.67-1.59,2.02-2.12,2.69
	c3,2.16,7.23,3.44,10.65,1.52c2.3-1.3,2.66-4.44,1.5-6.62c-2.12-2.24-5.65-1.99-7.92-3.99c1.41-2.73,4.39-0.49,6.51-0.15
	c0.61-0.89,1.19-1.8,1.75-2.72C309.82,91.21,306.67,89.99,303.71,91.27z M315.72,102.72c2.52,5.32,10.16,5.73,14.02,1.68
	c-0.82-0.81-1.63-1.62-2.45-2.42c-1.6,0.84-3.37,2.17-5.28,1.5c-3.53-0.93-4.4-6.25-1.45-8.35c1.99-1.87,4.76-0.48,6.68,0.75
	c0.8-0.92,1.61-1.85,2.43-2.77c-1.99-1.34-4.18-2.7-6.69-2.4C317.12,90.47,312.73,97.62,315.72,102.72z M332.25,91.02
	c0,5.25-0.02,10.5,0.01,15.75c1.24-0.02,2.49-0.03,3.74-0.04c-0.03-5.26,0.06-10.52-0.06-15.78
	C334.7,90.97,333.48,90.99,332.25,91.02z M365.05,90.95c-0.06,3.08-0.06,6.15-0.06,9.23c-2.36-3.05-4.69-6.12-7.02-9.19
	c-0.87,0-2.6,0.01-3.47,0.01c0,5.25-0.01,10.5,0,15.75c0.94,0,2.81,0,3.75,0c0-3.14,0-6.27-0.01-9.4c2.4,3.15,4.8,6.31,7.22,9.44
	c1.09-0.02,2.17-0.03,3.27-0.04c0.04-5.25,0.02-10.49,0.02-15.74C367.51,90.99,366.28,90.97,365.05,90.95z M374.84,92.31
	c-4.51,2.98-4.46,10.33,0.03,13.32c3.51,2.67,8.52,1.58,11.55-1.3c-0.8-0.81-1.59-1.61-2.39-2.4c-1.76,0.97-3.88,2.38-5.93,1.37
	c-3.54-1.42-3.6-7.3-0.02-8.7c2.04-1.06,4.13,0.25,5.8,1.38c0.8-1.03,1.59-2.08,2.36-3.15C382.94,90.61,378.18,89.61,374.84,92.31z
	 M388.73,91.04c0.03,5.24,0.01,10.47,0.02,15.71c4,0,7.99,0,11.99,0c0-0.81,0.01-2.43,0.02-3.25c-2.84,0-5.68,0-8.51-0.01
	c-0.01-0.75-0.01-2.23-0.01-2.97c2.5-0.02,5.01-0.02,7.52-0.03c-0.01-0.81-0.02-2.43-0.02-3.24c-2.5,0-4.99,0-7.49,0
	c0-0.75,0-2.24,0-2.99c2.83-0.01,5.67-0.01,8.51-0.01c-0.01-1.09-0.02-2.17-0.02-3.25C396.74,91,392.73,90.97,388.73,91.04z
	 M403.24,95.47c-0.49,5.03,5.89,4.21,8.36,6.76c-1.3,3.02-4.95,0.77-6.86-0.32c-0.81,0.86-1.61,1.73-2.39,2.61
	c2.66,2.13,6.29,3.26,9.61,2.1c2.85-0.74,4.01-4.38,2.7-6.85c-1.85-2.25-5.02-2.39-7.5-3.56c-0.75-3.51,3.99-1.56,5.69-0.66
	c0.7-0.89,1.39-1.77,2.09-2.66C411.49,89.78,403.62,89.64,403.24,95.47z M111.75,91c0.08,3.81-0.19,7.62,0.11,11.42
	c1.23,6.33,11.82,6.21,13.4,0.14c0.53-3.83,0.13-7.71,0.23-11.56c-0.93,0-2.81,0-3.74,0c-0.07,3.47,0.17,6.94-0.1,10.4
	c-0.56,2.89-5.23,3.12-6.02,0.26c-0.78-3.49-0.24-7.12-0.37-10.66C114.38,91,112.63,91,111.75,91z M146.5,91c0,5.25,0,10.5,0,15.75
	c0.94,0,2.81,0,3.75,0c0-5.25,0-10.5,0-15.75C149.31,91,147.44,91,146.5,91z M152.56,90.97c2.11,5.35,4.25,10.69,6.4,16.03
	c0.82,0,2.45,0.01,3.27,0.01c2.15-5.32,4.28-10.65,6.4-15.98c-1-0.01-3.02-0.04-4.02-0.06c-1.36,3.56-2.66,7.14-3.98,10.72
	c-1.29-3.54-2.64-7.06-3.88-10.62C155.35,91.03,153.95,91,152.56,90.97z M339.5,91c0,5.25-0.01,10.5,0,15.75c4.08,0,8.16,0,12.24,0
	c0.01-0.81,0.01-2.44,0.01-3.25c-2.84,0-5.66,0-8.49-0.01c-0.01-0.74-0.03-2.22-0.04-2.96c2.42-0.03,4.85-0.03,7.28-0.04
	c0-0.81,0-2.43,0-3.24c-2.42,0-4.84,0-7.25-0.01c0-0.75,0-2.24,0.01-2.99c2.71,0,5.42,0,8.13,0.05c0.04-0.82,0.11-2.47,0.15-3.3
	C347.52,91,343.51,91,339.5,91z"/>
<path fill="#143980" d="M84.75,46.7c2.31-0.15,5.495,0.51,4.735,3.63c-1.58,0.23-3.145-0.16-4.735,0
	C84.75,49.12,84.75,47.91,84.75,46.7z"/>
<path fill="#143980" d="M115.37,46.86c3.12-1.44,6.58,2.67,4.65,5.53c-0.92,2.25-4.27,2.73-5.84,0.91
	C112.16,51.48,112.89,47.88,115.37,46.86z"/>
<path fill="#143980" d="M164.47,46.68c2.55-0.21,6.17,0.49,6.02,3.79c0.19,3.28-3.4,4.14-5.98,3.86c-0.01-0.64-0.02-1.91-0.03-2.55
	c0.76-0.01,2.26-0.04,3.02-0.05c0-0.68,0-2.04,0-2.72c-0.74-0.01-2.23-0.02-2.98-0.02C164.51,48.41,164.48,47.26,164.47,46.68z"/>
<path fill="#143980" d="M221.34,47.03c2.49-1.45,5.72,0.71,5.57,3.49c0.29,2.95-3.56,5.15-5.88,3.19
	C218.8,52.06,219.06,48.5,221.34,47.03z"/>
<path fill="#143980" d="M284.41,46.94c3.05-1.57,6.57,2.15,5.03,5.11c-0.84,2.55-4.45,3.17-6.14,1.15
	C281.54,51.38,282.12,48.03,284.41,46.94z"/>
<path fill="#143980" d="M334.26,46.8c4.5-1.66,6.95,5.86,2.5,7.36C332.15,56.19,329.5,48.09,334.26,46.8z"/>
<path fill="#143980" d="M189.53,94.16c1.78,0.25,4.06-0.17,5.4,1.25c1.08,3.5-3.29,3.19-5.48,3.06
	C189.47,97.03,189.5,95.59,189.53,94.16z"/>
<path fill="#143980" d="M266.32,94.83c2.75-1.79,6.66,0.46,6.8,3.65c0.54,3.18-3.01,6.23-6.05,4.89
	C263.51,102.18,263.04,96.64,266.32,94.83z"/>
<path fill="#143980" d="M20.99,129.98c143.97,0.03,287.95,0.05,431.92-0.01c-11.85,23.19-22.35,47.14-30.42,71.93
	c-7.26,22.43-11.03,45.76-15.89,68.77c-8.96,44.99-18.97,90.01-35.42,132.94c-12.37,32.02-32.01,61.53-58.34,83.73
	c-22,18.61-48.16,32.28-75.91,39.95c-31.53-8.77-61.12-25.16-84.7-47.94c-22.59-21.58-39.39-48.77-50.37-77.91
	C85.58,358.3,75.7,313.12,66.73,268c-4.03-19.48-7.5-39.12-12.94-58.27C45.59,182.12,34.01,155.63,20.99,129.98z M316.81,152.44
	c-3.47,6.11-4.56,13.19-5.68,20.02c-7.35-2.5-15.2-5.31-23.03-3.78c-3.38,0.77-4.54,4.94-2.92,7.77c2.9,5.69,8.14,9.71,13.04,13.6
	c-4.29,2.83-8.51,5.92-11.84,9.87c-1.9,2.35-3.79,5.5-2.35,8.56c1.43,2.3,4.39,2.86,6.89,3.01c6.87,0.23,13.61-1.56,20.14-3.5
	c0.82,6.34,1.99,12.72,4.51,18.63c1.17,2.8,3.16,5.72,6.42,6.2c3.23-0.12,5.36-3.02,6.58-5.7c2.56-5.73,3.81-11.96,4.6-18.16
	c7.18,2.3,14.7,5.12,22.34,3.93c3.68-0.41,5.59-4.72,3.77-7.85c-2.88-5.71-8.14-9.74-13.04-13.64c5.09-3.69,10.61-7.35,13.79-12.93
	c1.73-2.95,0.56-7.38-3.11-8.02c-7.95-1.53-16.01,0.73-23.6,2.97c-0.79-5.92-1.79-11.86-4.01-17.43c-1.15-2.7-2.5-5.8-5.37-7.01
	C321,147.82,318.19,149.99,316.81,152.44z M141.57,161.04c-19.83,9.78-32.97,31.39-32.58,53.5c0.02,25.66,0.01,51.31,0,76.96
	c0.07,12.19,3.69,24.4,10.62,34.45c8.77,13.1,22.84,22.48,38.27,25.67c9.23,1.96,18.72,1.25,28.08,1.38
	c18.66,0.09,37.33-0.22,55.99,0.25c14.33,1.95,27.96,8.83,38.19,19.04c11.93,12.87,18.12,30.71,17.39,48.19
	c-0.59,15.84-6.87,31.35-17.36,43.23c-11.87,13.38-27.06,23.64-43.41,30.73c7.83-0.91,15.52-2.78,23.21-4.48
	c17.34-3.91,33.31-13.07,45.6-25.88c11.69-12.17,22.36-25.82,28.54-41.67c7.49-18.62,11.19-38.5,13.65-58.34
	c2.88-24.23,3.57-48.69,2.69-73.06c-37.26-0.09-74.53,0.13-111.78-0.12c-1.18-0.01-2.34-0.02-3.51-0.01
	c-24.74,0.29-49.49,0.02-74.23,0.13c-2.94,0-5.96,0.13-8.81-0.74c-5.81-1.87-10.44-7.51-10.37-13.73c0-15.35,0-30.7,0-46.05
	c0.04-7.55,6.83-14.05,14.3-14.2c26.98-0.09,53.96-0.02,80.94-0.03c0.02-20.59,0-41.17,0.01-61.76
	c-22.34,0.01-44.69-0.03-67.03,0.02C160.17,154.53,150.29,156.47,141.57,161.04z"/>
<path fill="#143980" d="M318.57,155.11c1.05-1.59,2.14-4.24,4.5-3.58c4.29,4.14,5.3,10.38,6.52,15.97c0.25,2.24,1.18,4.58,0.69,6.82
	c-2.48,1.09-5.06,1.9-7.55,2.95c-2.96-1.23-5.88-2.55-8.83-3.79C314.72,167.22,315.79,160.84,318.57,155.11z"/>
<path fill="#143980" d="M287.41,174.42c-1.08-2.75,2.54-3.64,4.55-3.46c6.45,0.26,12.93,1.94,18.77,4.61
	c0.03,2.55-0.29,5.09-0.71,7.61c-3.33,1.31-6.17,3.85-9.5,4.96C295.5,184.36,290.06,180.28,287.41,174.42z"/>
<path fill="#143980" d="M333.71,176.24c6.59-2.01,13.41-3.9,20.37-3.47c1.4,0.15,3.09,0.48,3.94,1.74c0.29,2.69-1.89,4.66-3.46,6.54
	c-3.28,3.3-7.01,6.17-11.03,8.5c-2.99-2.34-6.28-4.24-9.48-6.27C333.97,180.93,333.84,178.58,333.71,176.24z"/>
<path fill="#143980" d="M313.53,176.42c1.87,0.79,3.73,1.59,5.59,2.4c-2.01,0.86-4,1.75-5.99,2.66
	C313.25,179.79,313.39,178.11,313.53,176.42z"/>
<path fill="#143980" d="M325.9,178.91c1.69-0.57,3.38-1.15,5.07-1.73c0.11,1.51,0.18,3.02,0.22,4.53
	C329.42,180.78,327.66,179.83,325.9,178.91z"/>
<path fill="#143980" d="M313.06,184.68c3.18-1.49,6.34-3.01,9.6-4.29c2.97,1.59,5.98,3.14,8.87,4.9c-0.05,3.75-0.03,7.5-0.04,11.26
	c-3.11,1.56-6.26,3.04-9.48,4.38c-3.05-1.39-6-2.96-8.94-4.57C312.65,192.48,312.68,188.56,313.06,184.68z M320.37,185.92
	c-3.25,1.05-4.41,5.7-2.03,8.16c2.53,3.23,8.55,1.62,8.89-2.56C327.99,187.83,323.87,184.37,320.37,185.92z"/>
<path fill="#143980" d="M303.21,190.1c2.34-1.31,4.68-2.62,7-3.96c-0.24,2.82-0.26,5.65-0.16,8.48
	C307.74,193.15,305.46,191.65,303.21,190.1z"/>
<path fill="#143980" d="M334.23,186.72c2.32,1.47,4.63,2.95,6.89,4.51c-2.27,1.36-4.56,2.68-6.87,3.98
	C334.25,192.38,334.25,189.55,334.23,186.72z"/>
<path fill="#143980" d="M285.88,206.45c2.61-6.68,9.04-10.51,14.53-14.6c3.26,1.93,6.36,4.11,9.66,5.99
	c0.27,2.35,0.49,4.7,0.81,7.04c-5.1,2.03-10.54,3.15-15.98,3.77C291.78,208.9,288.1,209.08,285.88,206.45z"/>
<path fill="#143980" d="M334.06,198.55c3.22-1.84,6.46-3.64,9.69-5.46c5.37,4.28,11.63,8.61,13.77,15.48
	c-1.52,1.33-3.45,2.08-5.49,1.91c-6.25-0.32-12.33-2.18-18.14-4.4C333.36,203.67,334.1,201.05,334.06,198.55z"/>
<path fill="#143980" d="M313.09,199.58c1.58,0.83,3.19,1.62,4.72,2.56c-0.77,1.45-3,1.35-4.37,2.09
	C313.32,202.68,313.2,201.13,313.09,199.58z"/>
<path fill="#143980" d="M325.74,202.83c1.67-1.32,3.65-2.13,5.6-2.96c-0.16,1.69-0.32,3.38-0.46,5.08
	C329.16,204.25,327.44,203.55,325.74,202.83z"/>
<path fill="#143980" d="M313.73,207.2c2.7-1.08,5.42-2.1,8.17-3.04c2.8,1.29,5.64,2.52,8.53,3.61c-0.6,6.08-1.78,12.21-4.29,17.81
	c-0.97,1.74-1.96,4.07-4.13,4.49c-1.91-0.64-2.69-2.64-3.61-4.23C315.53,220.04,314.72,213.51,313.73,207.2z"/>
<g>
	<path fill="#DA251C" d="M320.37,185.92c3.5-1.55,7.62,1.91,6.86,5.6c-0.34,4.18-6.36,5.79-8.89,2.56
		C315.96,191.62,317.12,186.97,320.37,185.92z"/>
	<path fill="#DA251C" d="M235.16,290.88c1.17-0.01,2.33,0,3.51,0.01c0.12,4.62,0.09,9.23,0.08,13.85
		c8.59,0.04,17.18-0.06,25.77,0.06c0,1.29,0.01,2.59,0.02,3.89c5.05,2.39,10.13,4.75,15.19,7.15c1.23,0.46,2.06,1.49,2.8,2.54
		c-14.59,0.28-29.18,0.04-43.78,0.12c0,2,0,3.99,0,5.99c12.01,0.02,24.01-0.01,36.01,0.02c-0.01,1.39-0.01,2.78-0.02,4.18
		c7.21,2.78,14.47,5.4,21.71,8.11c1.28,0.38,2.32,1.23,3.07,2.33c-20.25,0.29-40.51,0.04-60.76,0.13
		c-0.05,4.19,0.02,8.39,0.12,12.59c-0.23,0.19-0.69,0.58-0.92,0.77c-0.74,0.12-2.23,0.37-2.97,0.5c0.01-4.63,0.01-9.25,0.01-13.86
		c-20.17-0.07-40.33,0.12-60.49-0.1c0.6-1.08,1.46-1.96,2.69-2.27c7.28-2.72,14.59-5.37,21.84-8.18c-0.02-1.41-0.04-2.81-0.05-4.21
		c12-0.01,24.01,0,36.01,0c0-2,0-4,0-6c-14.49-0.06-28.99,0.12-43.48-0.09c0.55-1.23,1.51-2.18,2.78-2.65
		c5.06-2.35,10.1-4.77,15.15-7.13c0.03-1.3,0.06-2.6,0.1-3.89c8.48,0.02,16.97,0,25.45,0C234.99,300.12,234.92,295.5,235.16,290.88z
		"/>
</g>
<rect x="159.56" y="49.039" fill="#FFFFFF" width="2.869" height="2.691"/>
<polygon fill="#143980" points="180.072,51.424 183.582,51.424 181.948,48.056 181.948,48.056 "/>
<polygon fill="#143980" points="298.675,51.495 302.186,51.495 300.552,48.126 300.552,48.126 "/>
<rect x="334" y="58.25" fill="#FFFFFF" width="3.195" height="2.604"/>
<g>
	<polygon fill="#FFFFFF" points="396.583,40.661 398.621,43.258 400.312,43.258 397.393,39.538 	"/>
	<polygon fill="#FFFFFF" points="398.177,40.605 396.139,43.202 394.448,43.202 397.367,39.482 	"/>
</g>
<polygon fill="#FFFFFF" points="402.406,39.383 400.073,41.534 399.058,40.617 401.508,38.359 "/>
</svg>
